<?xml version="1.0" encoding="utf-8"?>
<!-- Generator: Adobe Illustrator 22.1.0, SVG Export Plug-In . SVG Version: 6.00 Build 0)  -->
<svg version="1.1" id="Layer_1" xmlns="http://www.w3.org/2000/svg" xmlns:xlink="http://www.w3.org/1999/xlink" x="0px" y="0px"
	 viewBox="0 0 493.7 481.6" style="enable-background:new 0 0 493.7 481.6;" xml:space="preserve">
<style type="text/css">
	.st0{fill:#FFFFFF;}
</style>
<g>
	<g>
		<path class="st0" d="M404.6,440.2H90.2c-23.7,0-44.9-12.2-56.8-32.7c-11.9-20.5-12-44.9-0.3-65.5L185.7,73.9
			c11.7-20.5,32.7-32.9,56.3-33.2c23.3-0.5,44.9,11.6,57.1,31.7l161.8,268.2c12.4,20.6,12.8,45.3,1,66.2
			C450,427.7,428.6,440.2,404.6,440.2z M242.8,83.8c-0.1,0-0.2,0-0.3,0c-3.9,0.1-13.5,1.3-19.3,11.4L70.6,363.4
			c-5.8,10.2-1.9,19.1,0.1,22.5c2,3.4,7.8,11.2,19.5,11.2h314.4c11.9,0,17.7-8,19.6-11.5c1.9-3.4,5.8-12.6-0.3-22.7L262.1,94.7
			C256.2,85,246.8,83.8,242.8,83.8z"/>
	</g>
	<g>
		<g>
			<path class="st0" d="M222.8,348.4c0-6.8,2.4-12.3,7.3-16.6c4.9-4.3,11-6.5,18.3-6.5s13.4,2.2,18.3,6.5c4.9,4.3,7.3,9.9,7.3,16.6
				s-2.4,12.3-7.3,16.6c-4.9,4.3-11,6.5-18.3,6.5s-13.4-2.2-18.3-6.5C225.3,360.7,222.8,355.2,222.8,348.4z M267.5,305.9h-37.4
				l-5.9-136.3h49.2L267.5,305.9z"/>
		</g>
	</g>
</g>
</svg>
