<?xml version="1.0" encoding="utf-8"?>
<!-- Generator: Adobe Illustrator 22.1.0, SVG Export Plug-In . SVG Version: 6.00 Build 0)  -->
<svg version="1.1" id="Layer_1" xmlns="http://www.w3.org/2000/svg" xmlns:xlink="http://www.w3.org/1999/xlink" x="0px" y="0px"
	 viewBox="0 0 1669.3 621.7" style="enable-background:new 0 0 1669.3 621.7;" xml:space="preserve">
<style type="text/css">
	.st0{fill:#FFFFFF;}
</style>
<g>
	<path class="st0" d="M854.5,320.1l-15-24.9c-1.1-1.8-3.1-2.9-5.2-2.9c0,0-0.1,0-0.1,0c-2.2,0-4.1,1.2-5.2,3.1l-14.1,24.9
		c-1.1,1.9-1.1,4.2,0,6.1c1.1,1.9,3.1,3,5.3,3h29.1c2.2,0,4.2-1.2,5.3-3.1C855.6,324.3,855.6,322,854.5,320.1z M851.1,324.3
		c-0.2,0.3-0.7,1.1-1.8,1.1h-29.1c-1.1,0-1.6-0.7-1.8-1c-0.2-0.3-0.5-1.1,0-2.1l14.1-24.9c0.5-0.9,1.4-1.1,1.8-1.1c0,0,0,0,0,0
		c0.4,0,1.2,0.1,1.8,1l15,24.9C851.6,323.2,851.2,324,851.1,324.3z"/>
	<polygon class="st0" points="836.5,316.9 837.1,304.3 832.5,304.3 833.1,316.9 	"/>
	<path class="st0" d="M834.8,318.7c-0.7,0-1.2,0.2-1.7,0.6c-0.5,0.4-0.7,0.9-0.7,1.5s0.2,1.1,0.7,1.5c0.5,0.4,1,0.6,1.7,0.6
		s1.2-0.2,1.7-0.6c0.5-0.4,0.7-0.9,0.7-1.5s-0.2-1.1-0.7-1.5C836,318.9,835.4,318.7,834.8,318.7z"/>
</g>
</svg>
