<?xml version="1.0" encoding="utf-8"?>
<!-- Generator: Adobe Illustrator 22.1.0, SVG Export Plug-In . SVG Version: 6.00 Build 0)  -->
<svg version="1.1" id="Layer_1" xmlns="http://www.w3.org/2000/svg" xmlns:xlink="http://www.w3.org/1999/xlink" x="0px" y="0px"
	 viewBox="0 0 656.4 675.2" style="enable-background:new 0 0 656.4 675.2;" xml:space="preserve">
<style type="text/css">
	.st0{fill:#FFF59B;}
	.st1{fill:#124076;}
</style>
<g>
	<path class="st0" d="M639.7,409.8v69.4c-2.5,10.7-6.1,21-10.5,31.2c-7.1,16.5-15.1,32.4-25,47.4c-5.2,7.8-12.4,13.3-20.1,18.3
		c-1.3,0.8-2.7,0.7-4.1,0.7c-2.3,0-4.5,0.5-6.1,1.9c-0.5,0.4-0.9,0.9-1.3,1.5c-2.7,4.4-7.1,5.3-11.5,5.6c-7.9,0.5-14,4.1-19.3,9.6
		c-7.6,7.9-16.3,13.9-27.2,16.2c-3.7,0.8-7.5,1.2-11.3,1c-11-0.4-21.9,0.6-32.7,2.8c-4.1,0.8-5.4-0.4-5.5-4.5c-0.2-6.6-0.9-7-6.9-4
		c-3.1,1.6-6.1,3.2-9.6,4c-3.9,0.8-6.3-0.8-6.9-4.8c0-0.1,0-0.2,0-0.3c-1-8.1-1.3-8.5-9.7-8.2c-12.3,0.5-24.5,1.1-36.5,3.9
		c-2.6,0.6-5.2,1.5-7.5,3c-1.8,1.2-3.4,2.8-3.5,4.9c-0.2,5.8-3.5,9.9-6.8,14.1c-3.9,5-8.6,9.2-13.3,13.4c-2.2,1.9-4.4,3.4-6.8,4.6
		c-6.2,3.2-13.2,4.4-20.2,5.5c-10.8,1.6-21.7,2.7-32.7,2.7c-0.5,0-0.9,0-1.4,0c-4.5,0-9-0.2-13.2-2.8c-2.4-1.5-5.4-1.6-8.2-1.7
		c-3.6-0.1-5.6-1.1-6.8-3.7c-0.4-0.8-0.6-1.7-0.9-2.7c-3.1-14.2,1.3-24.9,13.5-32.8c5.5-3.6,11.7-5.6,17.6-8.5
		c2.7-1.3,5.5-2.4,8.3-5c-2.2-0.3-3.7-0.6-5.2-0.7c-12.4-0.3-24.8-0.5-37.1,1.2c-5,0.7-8.7,2.8-11.6,7.3c-9.9,15.2-23,26.8-40,33.5
		c-4.6,1.8-9.4,2.2-14.4,1.2c-5.3-1-10.6,0.1-15.8,1.4c-2.1,0.5-4.2,1.1-6.3,1.6c-4.2,0.9-7.9,0.5-10.7-3.5
		c-1.6-2.3-4.1-2.7-6.7-1.6c-0.3,0.1-0.6,0.3-0.9,0.4c-8.8,4-12.7,1.8-14.2-8c-1.7-10.5,1.3-19.3,9.5-26.2
		c5.3-4.4,11.2-7.9,17.1-11.3c2.3-1.4,2-2.1,0.5-4c-14.8-18-28.3-36.7-40.2-56.4c-14.8-24.5-27-50.5-36.1-78.2
		c-3.1-9.4-6.1-18.8-11.8-27.1c-4.7-6.8-10.4-12.8-14.6-19.9c-2.4-4.1-4.7-8.3-7.3-12.3c-1.9-3-2.2-2.9-4.1,0
		c-3.9,6.4-7.8,12.8-11.8,19.1c-0.6,1-1.2,1.9-2,2.8v-5.6c1.9-5.2,4.1-10.3,7.1-15c4.5-7.2,5.9-14.7,4.4-23
		c-1.5-8.3-3-16.6-5.7-24.7c-1.5-4.3-1.8-4.5-5.6-2.3c-0.1,0-0.1,0.1-0.2,0.1v-8.4c0.5-0.5,0.9-0.9,1.4-1.4c6.2-6.3,7.5-14.2,8-22.4
		c0.1-2.1-0.8-2.6-2.8-2c-2.2,0.6-4.4,1.3-6.5,2v-7c1.6-0.6,3.1-1.1,4.7-1.6c6.2-1.9,8.3-4.6,9.7-10.7c2.6-11.6,8.5-22.2,13.5-33
		c1.5-3.2,3-6.5,4.8-10.3c-5.5,0.4-10.4,0.7-15.3,1.1c-5.9,0.4-11.8,0.7-17.6,0.2v-92.8c8.6-8.4,16.7-17.4,26.9-24
		c5.9-3.8,12-7,19.2-7.4c3.1-0.2,5.5-1.9,7.5-4.1c1.9-2.1,3.5-4.5,4.6-7.1c3.7-8.5,10.1-14.2,18.4-18c5.7-2.6,11.5-5,16.7-8.7
		c3.2-2.3,5.8-5,7.5-8.7c4.2-8.6,10.2-15.9,17.4-22.1c3.6-3.2,4.9-2.6,6,2c1.2,5.2,0.5,10.6,1.9,15.8c0.8,3,1.5,6.1,3.1,8.9
		c1.5,2.7,2.6,2.7,3.9,0c2.8-5.3,5.3-10.6,8.1-15.9c4.8-9,10.3-17.5,17-25.2H220c-0.4,0.8-0.8,1.6-1.2,2.4
		c-5.9,11.8-11,24.1-15.2,36.6c-0.3,0.8-0.5,1.6-0.9,3.4c5.2-4.3,9.7-7.9,14.2-11.6c15.1-12.3,31.2-22.6,48.5-30.9h33
		c-1.2,0.9-2.4,1.8-3.6,2.7C283,52.3,271.8,61.8,262,72.7c-0.7,0.8-1.4,1.6-1.8,2.9c3.7-1.3,7.5-2.7,11.2-3.9
		c20.7-6.9,41.8-9.5,63.5-6.7c6.1,0.8,11.8,2.9,17,6.2c2.5,1.6,2.4,2.5-0.4,3.7c-6.9,3-14.3,4.2-21.6,5.8
		c-5.1,1.1-10.2,2.2-14.9,4.4c-1.3,0.6-2.9,1.1-2.9,2.7c0,1.7,1.8,2.2,3.1,2.4c10.5,2,19.2,7.6,27.7,13.8c5.7,4.2,12.3,7,19,9.1
		c22.1,6.8,39.5,20,50.7,39.9c7.9,14.1,18.8,22.5,33.6,27.6c28,9.8,54.3,22.8,78.9,39.4c23.9,16.1,45.6,34.4,62.2,58.2
		c7.9,11.2,14.5,23.1,19.8,35.8c5.2,12.4,12,24,16.7,36.7C631.2,370,636.5,389.7,639.7,409.8z"/>
	<g>
		<path class="st1" d="M639.7,409.8c-3.2-20.1-8.6-39.8-15.8-59.1c-4.7-12.6-11.5-24.3-16.7-36.7c-5.3-12.7-12-24.5-19.8-35.8
			c-16.6-23.8-38.3-42.2-62.2-58.2c-24.6-16.6-51-29.7-78.9-39.4c-14.8-5.2-25.7-13.6-33.6-27.6C401.4,133,384,119.8,361.9,113
			c-6.8-2.1-13.3-4.9-19-9.1c-8.5-6.2-17.2-11.8-27.7-13.8c-1.3-0.2-3.1-0.8-3.1-2.4c0-1.6,1.7-2.1,2.9-2.7
			c4.8-2.2,9.9-3.3,14.9-4.4c7.3-1.6,14.7-2.8,21.6-5.8c2.8-1.2,2.8-2.1,0.4-3.7c-5.2-3.3-10.9-5.4-17-6.2
			c-21.7-2.8-42.8-0.1-63.5,6.7c-3.8,1.2-7.5,2.6-11.2,3.9c0.4-1.3,1.1-2.1,1.8-2.9c9.9-10.9,21-20.4,32.8-29.2
			c1.2-0.9,2.4-1.8,3.6-2.7c3.6-2.8,7-5.9,10.1-9.3c0.8-0.9,2-2,1.2-3.4c-0.7-1.3-2-1.6-3.4-1.6c-3.4,0-6.7,0.8-9.9,1.8
			c-10.7,3.5-21.1,7.7-31.1,12.5c-17.2,8.3-33.4,18.5-48.5,30.9c-4.5,3.7-9,7.3-14.2,11.6c0.5-1.8,0.7-2.6,0.9-3.4
			c4.2-12.6,9.2-24.8,15.2-36.6c0.4-0.8,0.8-1.6,1.2-2.4c1.2-2.5,2.2-5.1,2.8-7.9c0.2-1,0.8-2.2-0.4-3c-1-0.7-2.1,0-3,0.6
			c-1.7,1.2-3.4,2.4-4.9,3.8c-2.2,2.1-4.2,4.3-6.2,6.5c-6.7,7.6-12.2,16.1-17,25.2c-2.8,5.3-5.4,10.6-8.1,15.9
			c-1.4,2.7-2.4,2.6-3.9,0c-1.6-2.8-2.3-5.8-3.1-8.9c-1.4-5.2-0.7-10.6-1.9-15.8c-1.1-4.6-2.4-5.2-6-2c-7.2,6.3-13.2,13.6-17.4,22.1
			c-1.8,3.7-4.3,6.4-7.5,8.7c-5.2,3.7-11,6.1-16.7,8.7c-8.3,3.8-14.7,9.5-18.4,18c-1.1,2.6-2.7,5-4.6,7.1c-2,2.3-4.4,4-7.5,4.1
			c-7.2,0.3-13.3,3.5-19.2,7.4c-10.2,6.6-18.3,15.6-26.9,24c-0.9,0.9-1.7,1.7-2.6,2.5c-6.6,6.3-10.4,14.4-12.5,23.2
			c-2,8.4-2,17-2.9,25.6c-0.9,8.4-1.4,16.9-3.4,25.1c-1.5,5.9-0.4,8.8,4.9,11.8c2,1.1,4.1,2,6.3,2.6c3.4,1,6.8,1.5,10.2,1.8
			c5.8,0.5,11.7,0.2,17.6-0.2c4.9-0.4,9.8-0.7,15.3-1.1c-1.8,3.9-3.3,7.1-4.8,10.3c-5.1,10.8-11,21.3-13.5,33
			c-1.4,6.1-3.5,8.8-9.7,10.7c-1.6,0.5-3.2,1-4.7,1.6c-11.4,4.1-22,10-32.4,16.4c-1.2,0.8-2.6,1.5-3.5,2.9c1.4,0.7,2.5,0.1,3.6-0.2
			c4.8-1.4,9.4-3.3,14.1-5.1c6-2.4,12.1-4.9,18.2-7c2.1-0.7,4.3-1.4,6.5-2c2.1-0.6,2.9,0,2.8,2c-0.4,8.3-1.8,16.2-8,22.4
			c-0.5,0.5-0.9,0.9-1.4,1.4c-2.4,2.2-4.9,4.3-7.6,6.2c-5.4,3.7-10.6,7.5-15.5,11.9c-1.5,1.3-3,2.7-4.1,4.9c2.6,0.1,4.3-1.1,6-2.1
			c7.1-4.1,14.1-8.4,21.2-12.4c0.1,0,0.1-0.1,0.2-0.1c3.8-2.2,4.2-2,5.6,2.3c2.7,8,4.1,16.4,5.7,24.7c1.6,8.3,0.1,15.8-4.4,23
			c-3,4.7-5.2,9.8-7.1,15c0,0.1-0.1,0.2-0.1,0.3c-0.7,2-1.9,3.9-1.4,6.4c0.6-0.3,1.1-0.7,1.5-1.2c0.8-0.8,1.4-1.8,2-2.8
			c3.9-6.4,7.8-12.8,11.8-19.1c1.8-2.9,2.2-3,4.1,0c2.5,4,4.8,8.2,7.3,12.3c4.2,7.1,10,13.2,14.6,19.9c5.7,8.2,8.7,17.6,11.8,27.1
			c9.1,27.7,21.3,53.7,36.1,78.2c11.8,19.7,25.3,38.4,40.2,56.4c1.5,1.9,1.8,2.6-0.5,4c-5.9,3.4-11.8,6.9-17.1,11.3
			c-8.2,6.9-11.2,15.7-9.5,26.2c1.5,9.8,5.3,11.9,14.2,8c0.3-0.1,0.6-0.3,0.9-0.4c2.6-1.2,5.1-0.8,6.7,1.6c2.7,4,6.5,4.4,10.7,3.5
			c2.1-0.4,4.2-1.1,6.3-1.6c5.2-1.3,10.5-2.4,15.8-1.4c5,1,9.8,0.6,14.4-1.2c17.1-6.7,30.1-18.3,40-33.5c2.9-4.5,6.6-6.6,11.6-7.3
			c12.3-1.7,24.7-1.4,37.1-1.2c1.5,0,3,0.4,5.2,0.7c-2.8,2.6-5.6,3.8-8.3,5c-5.8,2.8-12.1,4.9-17.6,8.5
			c-12.2,7.9-16.6,18.6-13.5,32.8c0.2,1,0.5,1.9,0.9,2.7c1.2,2.6,3.1,3.6,6.8,3.7c2.8,0.1,5.8,0.2,8.2,1.7c4.1,2.6,8.6,2.8,13.2,2.8
			c0.5,0,0.9,0,1.4,0c11,0,21.8-1.1,32.7-2.7c7-1.1,14-2.3,20.2-5.5c2.4-1.2,4.7-2.7,6.8-4.6c4.7-4.2,9.4-8.4,13.3-13.4
			c3.3-4.2,6.6-8.3,6.8-14.1c0.1-2.1,1.7-3.7,3.5-4.9c2.3-1.5,4.9-2.4,7.5-3c12-2.8,24.3-3.4,36.5-3.9c8.4-0.3,8.7,0.1,9.7,8.2
			c0,0.1,0,0.2,0,0.3c0.6,4,3,5.6,6.9,4.8c3.4-0.7,6.5-2.4,9.6-4c6-3,6.7-2.6,6.9,4c0.1,4.1,1.5,5.3,5.5,4.5
			c10.8-2.2,21.7-3.2,32.7-2.8c3.8,0.2,7.6-0.2,11.3-1c10.9-2.3,19.7-8.3,27.2-16.2c5.3-5.5,11.4-9.1,19.3-9.6
			c4.3-0.3,8.7-1.2,11.5-5.6c0.3-0.6,0.8-1.1,1.3-1.5c1.6-1.4,3.8-2,6.1-1.9c1.4,0,2.8,0.1,4.1-0.7c7.7-5,14.9-10.5,20.1-18.3
			c9.9-15,18-30.9,25-47.4c4.4-10.2,8.1-20.6,10.5-31.2c2.2-9.4,3.4-19,3.3-28.9C643,436.5,641.8,423.1,639.7,409.8z M339.1,127.9
			c35.7,1.8,55.6,23.4,68,54.3c1.6,4,3.1,8.1,3.3,12.5c0.1,0.9,0.5,2.1-0.7,2.6c-1,0.4-1.8-0.3-2.6-1c-2.6-2.3-4.6-5.2-6.7-7.9
			c-18.7-23.7-42.4-40.8-70.4-52c-5.3-2.1-10.9-2.4-17.1-3C321.4,128.5,330.1,127.5,339.1,127.9z M254,583.5
			c-2,5.4-5.4,9.9-8.8,14.4c-6.9,9.1-15.1,16.8-25.6,21.9c-0.4-1.2,0.5-2.2,0.8-3.2c1.1-3.3,2.3-6.5,3.3-9.9c0.4-1.3,0.8-2.9-0.5-4
			c-1.3-1.1-2.7-0.3-4,0.3c-3.2,1.4-6.1,3.4-8.9,5.4c-5.9,4.3-11.5,8.9-17.9,12.4c-1.6,0.9-3.2,2.2-5.5,1.5c0.8-3.3,3.2-5.4,5.3-7.7
			c2.7-3,5.6-5.8,7.7-9.3c0.6-1.1,1.7-2.3,0.9-3.6c-0.9-1.5-2.6-1-3.9-0.7c-5.7,1.3-11,4-16.2,6.6c-5,2.5-10,5.1-15.1,7.4
			c8.3-9.1,18.2-15.5,29.8-19.3c4-1.3,8-2.7,11.5-5.2c0.9-0.7,2.2-1.5,1.9-2.8c-0.3-1.6-2-1.7-3.2-1.7c-3.1,0.1-5.2-1.6-6-4.1
			c-5.3-19.3-20-32.2-31.7-47.1c-4.1-5.2-8.3-10.3-11.8-16c-0.2-0.4-0.4-0.9-0.7-1.6c-0.1-0.2-0.2-0.5-0.3-0.8
			c0.9,0.2,1.6,0.5,2.3,0.8c2.2,0.9,3.8,2.3,5.5,3.5c14.6,10.3,28.6,21.2,43.5,31c15.1,10,30,20.3,46.4,28.2
			C254.7,580.9,254.5,582,254,583.5z M526.2,590.1c-3.4,4.1-7.9,6.8-12.7,8.8c-1.8,0.7-3-0.1-2.8-2.2c0.1-1.3,0.4-2.6,0.6-3.8
			c1.2-5.9-0.9-7.7-6.7-5.8c-2.7,0.9-5.2,2.2-7.6,3.7c-3.1,1.9-6.1,3.8-9.1,5.7c-1.2,0.7-2.5,1.4-3.8,1.9c-1.2,0.5-2.6,1.4-3.6,0.4
			c-1.1-1.1-0.1-2.5,0.5-3.6c1.6-2.8,3.4-5.5,5-8.4c1.6-2.9,1.1-3.8-2.2-4c-7-0.4-13.2,2-19.1,5.4c-0.8,0.5-1.6,1-2.5,1.5
			c-0.1,0.1-0.4,0-0.9,0c6-7.4,13.7-10.7,23-10.2c11.6,0.6,23.2,0.8,34.6,3.2c2.2,0.5,4.4,1.1,6.4,2.4
			C527.3,586.4,527.8,588.2,526.2,590.1z M487.6,239c0.2,1.9,1.4,3.1,2.4,4.3c10.3,12.6,21.8,24.3,32.6,36.4
			c34,38.1,54,82.7,61.7,133c1.7,11.2,1.8,22.5,1,33.9c-1.3-6.3-2.5-12.7-4.1-18.9c-3.7-15.4-8.4-30.6-14.5-45.2
			c-0.8-1.9-1.2-5.1-3.4-4.9c-1.6,0.2-1.1,3.4-1.3,5.3c-1.1,10.9-1.1,21.9-1,32.9c0.1,13.7-2.9,26.6-8.8,39
			c-6.9,14.3-15.7,27.2-25.6,39.5c-6.4,8-13.8,15.1-20.2,23.1c-0.3,0.4-0.7,0.8-1,1.3c-0.7,0.9-1.8,1.6-1.7,3.4
			c2.5-1.2,4.8-2.3,7-3.5c0.7-0.4,1.4-0.8,2.1-1.2c5.5-3.1,11-6.2,16.6-9.3c2.2-1.2,4.5-2,6.8-3c0.8-0.3,1.7-1,2.4-0.3
			c0.7,0.7-0.1,1.6-0.4,2.4c-1.9,3.6-4.1,6.9-6.3,10.2c-1,1.5-2.1,3-3.2,4.6c-3,4.4-5.9,8.8-8.9,13.3c-0.3,0.5-0.9,1.2-0.5,1.8
			c0.5,0.9,1.4,0.2,2,0c4.2-1.3,8-3.3,11.9-5.2c2.9-1.4,5.9-2.9,9.1-3.5c2.9-0.5,4.1,0.8,3.2,3.7c-1.3,4.1-3.7,7.6-6.2,11
			c-5,6.9-10.1,13.6-15.2,20.4c-0.7,0.9-1.4,1.9-2.5,3.4c7.6-0.5,14.6-0.9,21.5-1.3c7.7-0.5,15.4-1.2,23.1-1c0.8,0,2-0.4,2.4,0.6
			c0.5,1.3-0.9,1.6-1.7,2c-10.2,5.9-21.3,7.7-32.9,7.4c-7.3-0.2-14.4-1.6-21.4-3.6c-10.9-3.1-21.9-5.5-33.3-5.1c-1.5,0-3,0-4.5,0
			c7.3-5.5,16.1-8.2,23-14.7c-2.8-1.4-5.1-0.3-7.4,0.2c-14.2,3.3-27.6,9-41.3,13.6c-13.5,4.5-26.8,9.2-40.7,12.4
			c-1.3,0.3-2.5,0.5-4.2,0.2c2.4-2.7,5.3-3.8,8.1-5c10.7-4.4,20.6-10.2,30-16.8c13.5-9.4,26.3-19.6,37.7-31.5c2-2.1,4-4.3,5.7-6.7
			c0.8-1.2,1.5-2.4,2-3.7c0.4-1,1.1-2.1,0.1-3c-1-1-2-0.2-3,0.3c-3.6,1.9-7,4.1-10.3,6.4c-2.5,1.7-4.9,3.5-7.3,5.3
			c-10.8,7.9-21.6,15.8-33.6,21.7c-0.7,0.4-1.5,0.7-3.1,1.5c3-4.4,5.5-8,8-11.7c3.8-5.5,7.3-11.1,10.5-16.8
			c10.1-18,17.2-37.3,21.2-57.8c0.3-1.8,0.5-3.7,0.6-5.5c0.1-0.8,0.3-2-0.6-2.3c-1-0.4-1.4,0.8-1.8,1.5c-2,3.2-4.2,6.4-5.9,9.7
			c-9.9,19.2-21.7,37.2-34.5,54.5c-8.5,11.6-17.5,22.9-26.7,34c-10.4,12.7-20.7,25.4-28.8,39.8c-3.1,5.5-5.6,11.2-5.6,17.8
			c0,2.1-1.1,3.9-2.3,5.7c-4.4,6.6-9.8,12.2-16.4,16.5c-2.2,1.5-5.1,3.7-7.3,1.2c-2.3-2.7,0.5-5.2,2.1-7.4c1-1.3,2.2-2.4,3.2-3.7
			c0.6-0.7,1.4-1.6,0.8-2.6c-0.7-1.2-2-0.8-3-0.6c-4.4,1.1-8.3,3.1-12.1,5.4c-5.8,3.5-11.5,7.1-17.2,10.6c-1.3,0.8-2.7,1.5-4.1,2.1
			c-0.9,0.4-1.8,1.1-2.7,0c-0.7-0.8-0.1-1.7,0.3-2.4c2.8-5.4,6.7-9.9,12.4-12.4c1.6-0.7,3.2-1.4,4.4-2.6c0.9-0.9,1.7-2,1.2-3.5
			c-0.5-1.4-1.7-1.8-3.1-1.9c-2.4-0.1-4.7,0.3-7,1.1c-5.7,1.9-10.9,4.6-16.1,7.6c-3.6,2-7.1,4.2-11.1,5.3c-0.7,0.2-1.5,0.6-2-0.3
			c-0.5-0.8,0-1.5,0.5-2c1.6-1.4,3.3-2.9,5-4.1c7.6-5.3,16-9.2,24.1-13.5c4.2-2.2,8.4-4.6,12.1-7.6c1.8-1.4,2.5-2.5,0.6-4.6
			c-3.2-3.7-5.2-8.2-7.1-12.7c-3.7-8.6-9.5-15.2-17.3-20.2c-7.5-4.8-14-10.6-18.3-18.6c-0.9-1.6-2-3.1-3.4-4.4c-1.2-1-2.5-2-4.1-1.5
			c-1.9,0.5-2.3,2.2-2.6,3.8c-0.4,1.8-0.2,3.7,0.1,5.5c0.2,1.2,0.4,2.3,0.5,3.5c0.1,0.8,0.5,1.9-0.4,2.4c-0.9,0.5-1.6-0.4-2.2-0.9
			c-4-3.3-7.3-7.1-10.9-10.8c-4.3-4.6-8.8-9.1-13.8-12.9c-1-0.8-2.1-2.1-3.3-1.4c-1.4,0.8-0.8,2.5-0.5,3.9c2.5,9.3,7.5,17.2,12.9,25
			c4,5.7,9,10.6,13.2,16.3c-4.8-2.1-9.5-4.2-13.8-7.2c-9-6.3-17.1-13.7-24.9-21.5c-4.9-5-9.6-10.1-15.1-14.4
			c-1.4-1.1-3.1-3.1-4.8-2.1c-2,1.2-0.5,3.6-0.1,5.4c0.8,3.4,2.6,6.5,3,10c0.1,1,0.5,2.2-0.4,2.7c-0.9,0.6-1.8-0.3-2.6-0.8
			c-8-4.9-15.3-10.8-22.6-16.6c-4.3-3.5-8.6-6.9-12.9-10.5c-11.4-9.4-22.6-19-33.5-29c-6.1-5.6-11-11.9-14.6-19.4
			c-4.3-9.3-8.2-18.9-10.8-28.8c-1.7-6.3-1.1-7.8,4-11.6c5.5-4.1,5.6-5.5-0.6-8.3c-15.3-7-26.3-18.1-34-32.8c-2-3.9-3.6-7.9-5-12
			c-1.5-4.6-0.8-8.7,2-12.6c5.1-6.9,11.2-13,17-19.3c5.8-6.3,11.8-12.5,16.9-19.4c0.8-1,1.7-2,1.8-3.7c-1.8,0.2-2.9,1.4-4,2.3
			c-6.8,5.6-12.9,12-19.2,18.1c-5.3,5.2-10.6,10.3-16.4,14.9c-1.9,1.5-2.9,1-3.4-1.2c-2-8.7-1.2-17.5-1.3-26.3
			c0-1.6,1.5-1.7,2.5-2.2c11.6-5.5,23.3-10.6,34.6-16.7c2.2-1.2,4.5-2.4,7-4.6c-3.1-0.1-5.2,0.7-7.4,1.4c-9.2,3.1-18.4,6.4-27.7,9.6
			c-1.8,0.6-3.8,1-5.7,1.3c-1.8,0.3-2.5-0.6-2-2.3c1.1-3.3,1.7-6.7,2.2-10.1c0.3-2.3,2.4-3.5,4.2-4.7c4.4-3,9.4-4.8,14.4-6.6
			c2.4-0.9,4.8-1.8,7.1-3.2c-5.1,0.7-10.1,1.5-15.2,2.2c-0.5,0.1-1.1,0.2-1.6,0.3c-3.9,0.4-4.9-0.7-3.7-4.4
			c2.3-6.8,5.1-13.4,8.6-19.7c7.1-12.7,15.9-24.4,24.3-36.2c11.1-15.8,22-31.8,29-50c3.7-9.7,5.3-19.9,6.8-30.1
			c0.1-0.5,0.3-1-0.6-1.7c-3.8,4.5-7.7,9-11.4,13.6c-4.7,5.9-9,12-12.5,18.6c-4.2,8-10.5,12.7-19.3,14.5c-7.2,1.5-14.4,3.2-21.8,3.7
			c-1,0.1-2.1,0-3.3-0.4c9.9-7.5,21.7-11.1,33.3-17c-7.8-1-14.8-2-21.8-2.9c0-0.2,0-0.3,0-0.5c8.2-2.5,16.4-5.1,25.3-7.9
			c-9.6-4.2-19.2-6.8-27.9-11.7c1.1-1.4,2.4-1,3.5-0.9c5.1,0.3,10.2,0.7,15.3,1.1c3.6,0.3,7.2,0.5,10.7-0.2c1.4-0.3,2.9-0.5,3.4-2.1
			c0.5-1.5-0.6-2.6-1.6-3.7c-2.2-2.3-4.8-4-7.4-5.9c-1.6-1.1-3.2-2.2-4.7-4.1c1.7,0,3.5,0,5.2,0c2,0,3.9,0,5.8-0.5
			c1.8-0.4,2.1-1.4,1.1-2.8c-0.6-0.9-1.2-1.8-1.9-2.6c-2.1-2.7-2.5-5.7-1.5-8.9c1.6-5.5,3.9-10.8,6.8-15.8c4.8-8.2,10.8-10.8,20-8.9
			c4.9,1,9.7,2.3,14.6,3.3c1.4,0.3,3.3,0.8,4.2-0.6c1.1-1.7-0.6-3-1.6-4.2c-1.3-1.6-2.9-3-4.3-4.5c-1.4-1.5-2.3-3.2-2.2-5.2
			c0.1-2,0.5-4.2,2.3-5.1c1.7-0.8,2.9,1,4.1,2.1c8.2,7.4,15.4,15.6,21.3,25c2.5,4,3.8,4.2,7.3,1.1c5.4-4.8,9.5-10.7,14.1-16.2
			c7.3-8.9,15.8-16.5,24.8-23.5c0.8-0.7,1.6-1.5,2.8-1.6c0.6,1.7-0.6,2.9-1.3,4.2c-3.6,7.1-7.7,14.1-10.8,21.5
			c-0.6,1.4-2.1,3.3-0.9,4.4c1.1,1.1,3-0.3,4.5-0.9c11.3-4,21.8-9.7,32.9-14c7.2-2.8,14.3-5.8,21.9-7c0.8-0.1,1.9-0.7,2.4,0.2
			c0.5,0.9-0.5,1.5-1,2.2c-2.1,2.7-4.4,5.4-6.5,8.1c-0.9,1.2-2.1,2.7-1.1,4.1c1,1.4,2.7,0.9,4.2,0.6c20.7-3.5,37.8,3.8,53.5,17.5
			c-2.4,0.8-4.4,0.5-6.4,0.5c-15.7-0.4-27.5,6.6-36.1,19.5c-0.7,1-1.3,2-1.7,3.1c-0.8,2.2-0.1,3.7,2.4,4.3c3.5,0.8,7.1,0.3,11.4,0.9
			c-3,2.1-5.4,3.8-7.8,5.6c-2,1.4-3.9,2.8-5.4,4.7c-2.1,2.6-1.6,4.3,1.7,5.1c4.4,1,8.9,0.7,13.3,0.4c5.6-0.4,11.2-1.2,16.9-1.1
			c0.9,0,1.7,0.1,2.7,0.7c-8.3,5.2-17.7,7.7-27.4,11.9c8.9,2.8,17.1,5.3,25.2,7.9c0,0.2,0,0.3,0,0.5c-7,0.9-14,1.8-21.8,2.8
			c12.9,6.6,26,11.5,38.2,19c-2.5,1-4.5,0.4-6.5,0c-9.9-1.9-19.8-3.9-29.7-5.8c-2.2-0.4-4.5-0.7-6.8-0.9c-3.1-0.3-3.9,0.9-2.8,3.9
			c1,2.6,2.5,4.8,4.2,6.9c6.4,8.3,14.7,14.4,22.9,20.6c28.9,21.8,49.9,49.9,65.3,82.4c7.2,15.1,11.8,31,15.9,47.1
			c0.2,0.8,0.4,1.7,0.7,2.5c0.1,0.2,0.3,0.3,0.5,0.5c3.1-38.5-9.3-73.1-26-107.4c4,0,7.4,0,10.8,0c10.1-0.1,19.8-1.9,29.2-5.8
			c2.2-0.9,4.3-2.1,6.3-3.4c3.4-2.2,4.8-5.3,5.4-9.2c1.4-10.1,0-20.1-1-30.2c-0.4-3.9-0.8-7.7-1.2-12.3
			c78.9,30.8,139,80.9,171.8,160.2C569.1,306.7,533.5,267.8,487.6,239z"/>
		<path class="st1" d="M321.8,551.8c2.7-3.2,5.5-4.9,8.2-6.7c37.5-25.2,64.9-58.8,84.6-99.2c9.5-19.5,15.2-40.2,19.3-61.4
			c3.7-19.3,6.4-38.7,7.6-58.3c0.5-7.7-0.1-15.4,1.1-23.9c1.9,4.3,2.4,8.2,3,12c2.9,18.9,2.6,37.9,1.6,56.9c-1,18.7-3.5,37.1-9.3,55
			c-10,30.7-24.2,59.3-46.5,83c-14.6,15.6-31.5,28.3-50.8,37.5C334.8,549.3,329,551.4,321.8,551.8z"/>
		<path class="st1" d="M206.8,389.9c-6.9-0.7-13.8-1.3-20.7-2.2c-10.8-1.4-21.5,0.2-32.1,1.7c-3,0.4-6.1,0.4-9.1,0.3
			c-1.3,0-2.9-0.1-3.3-1.5c-0.4-1.2,0.9-2.1,1.8-2.8c2.4-2,5.1-3.7,7.9-5.1c1.5-0.7,2.9-1.4,4.4-2.2c7.8-4,8.1-5,5.7-13.4
			c-3-10.8-4.1-22-5.3-33.1c-0.6-5.3-0.9-10.6-2.4-15.8c-0.9-3-2.3-4.9-5.9-3.8c-1.2,0.4-2.6,0.1-3.8-0.3
			c-8.5-2.6-16.5-13.9-16-22.8c0.3-5.3,3.5-7.4,8.4-5.5c3.6,1.4,6.5,3.9,9.3,6.5c1.8,1.7,3.6,3.5,5.7,4.8c2.3,1.4,4.4,2.1,6.8,0.1
			c2.2-1.9,3.1,0.3,3.7,1.8c1.7,4.2,2.4,8.8,3.3,13.3c3,16.2,5.1,32.6,9,48.6c1.2,5.1,3.9,8.9,8.1,11.7c9.5,6.5,20,9.8,31.5,10.2
			c0.4,0,0.9-0.1,1.3,0c1.9,0.3,4.8-0.9,5.5,1.4c0.7,2.2-1.7,3.8-3.3,5.2C214.2,389.8,210.5,389.8,206.8,389.9z"/>
		<path class="st1" d="M269.6,188.8c-3.5-4.5-7.7-8.3-13.3-10.1c-3.1-1-6.2-1.2-9,0.8c-9,6.3-15.1,15-14.7,25.9
			c0.7,19.4,8.9,31.8,29.3,35.5c9.4,1.7,14.6-1.6,17.1-10.9c0.9-3.5,1.1-7.1,1.2-10.7C280.2,207.9,276.5,197.8,269.6,188.8z
			 M261.6,211.2c-4.2-1.4-9.2-8.2-9-12.5c0.1-1.8,0.7-3.3,3-2.3c2.8,1.2,8.5,9.9,8.7,13.4C264.3,211.2,263.5,211.8,261.6,211.2z"/>
		<path class="st1" d="M214.3,313.6c25.6,3.6,96.7,61.7,101.5,82.6c-2.3-0.9-3.7-2.8-5.3-4.2c-9.5-8.9-18.3-18.6-28.1-27.2
			c-18-15.9-37.7-29.6-57.6-43C221.2,319.5,217.7,317,214.3,313.6z"/>
		<path class="st1" d="M224.7,301.8c1.4-0.6,2.7,0,4,0.5c21.4,7.7,41.7,17.6,61,29.7c12.6,7.9,25,16,36.4,25.7
			c2.8,2.3,5.6,4.6,7.1,8.6c-0.9-0.1-1.3-0.1-1.6-0.3c-33-24.4-70.1-42-105.5-62.5C225.5,303.2,224.7,302.8,224.7,301.8z"/>
		<path class="st1" d="M331.1,315.8c-4.3-0.9-8.3-2.5-12.3-4.2c-21.6-9.5-44.3-15.1-67.4-19.7c-6.8-1.3-13.5-3-20-5.3
			c-0.8-0.3-2.3-0.5-2.1-1.7c0.2-1.1,1.6-0.9,2.5-0.9c7.9-0.5,15.5,1.1,23.3,2.2c24.6,3.6,47.7,12,70.1,22.7c2.4,1.2,4.7,2.6,7.1,4
			c0.8,0.5,1.5,1.1,1.1,2.1C332.9,316,332,315.9,331.1,315.8z"/>
		<path class="st1" d="M195.2,289.8c-0.9,7.6-5.1,14.8-13.1,19.4c-2.9,1.7-6.2,2.4-9.2,0c-3.3-2.7-5-6.3-4.3-10.6
			c1.3-7.8,10.6-17,18.4-18.3C192,279.5,195.2,282.6,195.2,289.8z"/>
		<path class="st1" d="M218.2,326.6c2.4,0.5,3.7,1.6,5,2.6c23.9,18.3,43.5,40.4,59,66.2c1.5,2.4,2.8,4.9,3.5,7.7
			c0.2,0.8,0.7,1.8-0.3,2.3c-0.8,0.4-1.4-0.5-1.9-1c-0.9-1-1.8-1.9-2.5-3c-8.2-13.3-19-24.5-29.4-36c-9-10-18.7-19.3-27.4-29.6
			C222.1,333,219.6,330.5,218.2,326.6z"/>
	</g>
</g>
</svg>
