<?xml version="1.0" encoding="utf-8"?>
<!-- Generator: Adobe Illustrator 22.1.0, SVG Export Plug-In . SVG Version: 6.00 Build 0)  -->
<svg version="1.1" id="Layer_1" xmlns="http://www.w3.org/2000/svg" xmlns:xlink="http://www.w3.org/1999/xlink" x="0px" y="0px"
	 viewBox="0 0 131.6 145.3" style="enable-background:new 0 0 131.6 145.3;" xml:space="preserve">
<style type="text/css">
	.st0{fill:#124076;}
	.st1{fill:#FFFFFF;}
</style>
<path class="st0" d="M128.3,114.5c-8.5-4-14.1-12.4-14.5-21.7c-0.6-0.1-1.2-0.2-1.8-0.3c-13.7-2.9-22.5-16.2-19.6-29.9
	c0.1-0.3,0.1-0.6,0.2-0.9c-0.2,0-0.5,0-0.7-0.1c-0.9-0.1-1.9-0.2-2.8-0.4c-0.7-0.2-1.5-0.3-2.2-0.6c-8.7-2.6-15-9.6-17.2-18
	c-0.4-1.6-0.7-3.3-0.8-5c-0.1-2.1,0.1-4.2,0.5-6.4C56,28.4,47.3,15.4,49.7,2H3.1v140h71c19.3,0,36.8-7.8,49.5-20.5
	c2.1-2.1,4-4.3,5.8-6.6C129,114.9,128.6,114.7,128.3,114.5z"/>
<g>
	<path class="st1" d="M106.8,96.1c-4.1-4.2-8.2-8.3-12.4-12.4c-1.6-1.6-3.4-1.9-5.5-1.1c-0.3,0.1-0.5,0.1-0.7-0.1
		c-0.5-0.5-1-1.1-1.5-1.5s-0.5-0.7-0.1-1.2c2.9-3.8,4.6-8.2,5.1-12.9c0.2-1.8,0.2-3.5,0.1-5.2c-0.9-0.1-1.9-0.2-2.8-0.4
		c-0.7-0.2-1.5-0.3-2.2-0.6C87,61.8,87,62.9,87,64c-0.1,12-9.7,21.6-21.7,21.6c-11.9,0-21.6-9.6-21.7-21.7
		c0.1-12.2,9.8-21.7,21.7-21.7c1.5,0,2.9,0.1,4.3,0.4c-0.4-1.6-0.7-3.3-0.8-5c-1.1-0.1-2.3-0.3-3.5-0.3c-2.6,0-5.8,0.5-8,1.2
		c-6.4,2.1-11.5,6.1-14.9,11.9c-3.6,6.1-4.5,12.6-2.9,19.5c1.1,4.9,3.5,9.2,7.1,12.7c4.1,4,9,6.5,14.7,7.4c4.3,0.7,8.6,0.3,12.7-1.2
		c2.6-0.9,5.1-2.2,7.3-3.9c0.4-0.3,0.6-0.3,0.9,0.1c0.5,0.6,1.1,1.1,1.7,1.7c0.2,0.2,0.3,0.3,0.2,0.7c-0.9,2.2-0.4,4.1,1.3,5.8
		c4,4,7.9,7.9,11.9,11.9c0.2,0.2,0.5,0.5,0.7,0.6c1.7,1.2,3.4,1.5,5.3,0.5c1.5-0.8,2.6-2.1,3.7-3.3
		C108.9,100.9,108.8,98.1,106.8,96.1z"/>
	<path class="st1" d="M49.9,61.4c0.3-1.1,1.9-1.1,2.1,0.1c0.8,4,2.6,7.5,5.7,10.4c3.1,2.9,6.6,4.5,10.6,5c1.2,0.1,1.3,1.8,0.2,2.1
		c-4.2,1.3-9.5,0.6-13.7-2.8C50.5,72.6,48.6,66.7,49.9,61.4z"/>
</g>
</svg>
